<?xml version="1.0" encoding="UTF-8" standalone="no"?>
<svg
   xmlns:dc="http://purl.org/dc/elements/1.1/"
   xmlns:cc="http://creativecommons.org/ns#"
   xmlns:rdf="http://www.w3.org/1999/02/22-rdf-syntax-ns#"
   xmlns:svg="http://www.w3.org/2000/svg"
   xmlns="http://www.w3.org/2000/svg"
   id="svg979"
   version="1.1"
   viewBox="0 0 297 210"
   height="210mm"
   width="297mm">
  <defs
     id="defs973" />
  <metadata
     id="metadata976">
    <rdf:RDF>
      <cc:Work
         rdf:about="">
        <dc:format>image/svg+xml</dc:format>
        <dc:type
           rdf:resource="http://purl.org/dc/dcmitype/StillImage" />
        <dc:title></dc:title>
      </cc:Work>
    </rdf:RDF>
  </metadata>
  <g
     transform="translate(0,-87)"
     id="layer1">
    <g
       id="g948"
       transform="translate(39.230462,-18.821395)">
      <g
         id="g932">
        <path
           style="fill:#00d6b4;fill-opacity:1;stroke-width:0.12338756"
           d="m -2.4804294,185.15411 v 0 c -1.706147,0.002 -3.6785234,0.12147 -4.8575975,0.32408 -5.2638111,0.90458 -10.2702501,3.5402 -13.9398691,7.33852 -2.326599,2.40825 -3.777193,4.52909 -5.098047,7.45368 -2.306587,5.10709 -2.880816,10.81532 -1.636896,16.2696 0.441306,1.93501 0.78253,2.82248 1.296318,3.37165 0.607406,0.64923 1.158799,0.73475 4.509575,0.69932 1.628997,-0.0172 5.402599,-0.0104 8.385699,0.0152 0.499905,0.004 0.993346,0.0182 1.479989,0.0397 l 0.0072,-8.49677 0.0041,-5.03234 h 4.6061136 v 0.0132 l 3.1035043,-0.0132 h 5.42129438 c 0.0666651,-0.0506 0.13273171,-0.10259 0.19712274,-0.15743 0.87291748,-0.74408 1.30936418,-1.64552 1.30936418,-2.7044 v -1.97457 c 0,-1.03027 -0.4364467,-1.91754 -1.30936418,-2.66162 -0.83950112,-0.74408 -1.88048155,-1.1161 -3.12284552,-1.1161 h -1.3598717 c -1.2087801,0 -2.2497127,0.37202 -3.1227258,1.1161 -0.8730372,0.74408 -1.3095078,1.63135 -1.3095078,2.66162 v 0.88499 h -4.4321622 v -0.88499 c 0,-2.08916 0.856234,-3.86365 2.5686999,-5.32318 1.7460025,-1.48816 3.8445518,-2.23215 6.2956959,-2.23215 h 1.3598956 c 1.25596033,0 2.41490323,0.19543 3.4768766,0.58612 2.2388452,-0.17541 5.1763451,-0.3552 7.1079325,-0.4211 2.4850635,-0.0847 2.8563285,-0.18794 3.5731995,-0.993 0.520682,-0.58477 0.739707,-1.22353 0.709666,-2.07042 -0.04773,-1.34681 -0.597209,-2.00893 -2.646495,-3.18868 -3.1964528,-1.84022 -6.7322148,-3.01136 -10.29054963,-3.40859 -0.38079278,-0.0425 -0.85123037,-0.0703 -1.37265407,-0.0844 -0.2909566,-0.008 -0.5977595,-0.0115 -0.9137064,-0.0111 z m -22.1304566,36.29313 c -0.580525,0 -1.047851,0.46735 -1.047851,1.04787 v 0.0359 c 0,0.58052 0.467326,1.04788 1.047851,1.04788 h 12.267138 l 0.0024,-2.13168 z"
           id="path2303-9" />
        <path
           id="path2305-4"
           d="m 5.2622024,198.12637 c 0.534132,0.65832 0.9234703,1.36882 1.1679641,2.13158 H 18.75713 c 0.580499,0 1.047851,-0.46733 1.047851,-1.04785 v -0.0359 c 0,-0.58052 -0.467352,-1.04785 -1.047851,-1.04785 z m 1.3688526,2.93735 c 0.072384,0.39934 0.1086048,0.81178 0.1086048,1.23724 v 1.9746 c 0,1.03611 -0.2036815,1.9898 -0.6094612,2.86178 h 0.046386 c -0.018911,0.0372 -0.03712,0.0741 -0.056532,0.1117 -0.1530778,0.29413 -0.3304442,0.61537 -0.3944746,0.71399 -0.2700807,0.41577 -0.3017666,0.34485 0.3706041,0.83583 0.9189482,0.67093 1.4510346,1.11778 1.8922179,1.58866 1.8146783,1.93693 2.645548,4.02432 2.645548,6.64684 0,2.7677 -0.9452949,4.99244 -2.9474983,6.9374 -1.3619999,1.32307 -2.9276434,2.20849 -4.6598547,2.63516 -0.6770195,0.16675 -0.8699406,0.23584 -2.17338838,0.2657 v -4.47084 c 0.82185748,-0.0639 1.46708338,-0.22614 2.10225818,-0.52906 1.1706495,-0.55837 2.0918777,-1.49163 2.6255094,-2.65953 0.4904507,-1.0736 0.5854894,-2.52389 0.2408395,-3.67237 -0.5573059,-1.85693 -2.1901908,-3.35596 -4.1479909,-3.80795 -0.3446943,-0.0796 -0.76249474,-0.0884 -4.8869698,-0.10341 l -4.5101843,-0.0163 v 5.41962 4.08578 1.33359 2.45072 1.99514 h -8.7674007 c -0.705596,0.12569 -1.013708,0.35525 -1.441839,0.83609 -0.52073,0.58476 -0.7397,1.22354 -0.709655,2.07047 0.04773,1.3468 0.597244,2.00882 2.646536,3.18858 3.134929,1.80479 6.6865435,2.99506 10.1509725,3.40196 1.6429044,0.19294 5.56393858,0.0735 7.2835149,-0.22204 5.2637869,-0.90458 10.2702736,-3.54022 13.9398666,-7.33855 2.326599,-2.40824 3.777171,-4.52915 5.098004,-7.45372 1.400805,-3.10157 2.167074,-6.39248 2.265913,-9.73152 0.114469,-3.86879 -0.793503,-8.66549 -1.861913,-9.83666 -0.440303,-0.48265 -0.792933,-0.68048 -1.974856,-0.74887 z"
           style="fill:#008ff8;fill-opacity:1;stroke-width:0.12338756" />
      </g>
      <g
         id="g924">
        <path
           d="m 43.034515,227.87145 q -2.657151,0 -5.447158,-0.22144 -2.790008,-0.22142 -5.048586,-0.70856 l 7.085734,-29.6715 q 2.524294,-0.48716 5.270015,-0.66431 2.790007,-0.17713 5.092871,-0.17713 2.65715,0 4.561441,0.57572 1.948577,0.53143 3.144294,1.46143 1.240003,0.93 1.815719,2.21429 0.620002,1.24001 0.620002,2.65714 0,0.97429 -0.22143,2.03715 -0.177143,1.06288 -0.797144,2.12573 -0.575716,1.01856 -1.638576,1.94858 -1.018574,0.93 -2.701436,1.68285 1.992862,0.88573 2.922865,2.43571 0.930002,1.50572 0.930002,3.36574 0,2.12571 -0.84143,4.11859 -0.841431,1.94855 -2.701436,3.49857 -1.860005,1.50572 -4.827156,2.43571 -2.967152,0.88573 -7.218591,0.88573 z m -0.620003,-13.81718 -1.904289,7.97146 q 0.708573,0.13286 1.771432,0.22142 1.107146,0.0443 2.037149,0.0443 1.328575,0 2.612864,-0.17715 1.328575,-0.22142 2.347151,-0.75287 1.062858,-0.53143 1.727146,-1.46143 0.664288,-0.92999 0.664288,-2.39142 0,-0.62001 -0.265716,-1.24 -0.221429,-0.62002 -0.752859,-1.10715 -0.53143,-0.48716 -1.417146,-0.79714 -0.841432,-0.31001 -2.037148,-0.31001 z m 1.284292,-5.18144 h 4.34001 q 2.65715,0 3.941439,-1.15144 1.328575,-1.15142 1.328575,-2.74572 0,-0.84144 -0.398572,-1.41713 -0.354287,-0.62002 -0.974288,-0.9743 -0.620002,-0.3543 -1.417147,-0.48716 -0.797146,-0.17712 -1.638575,-0.17712 -0.930003,0 -1.992864,0.0886 -1.06286,0.0443 -1.594289,0.13286 z"
           style="font-style:normal;font-variant:normal;font-weight:normal;font-stretch:normal;font-size:medium;line-height:1.25;font-family:Ubuntu;-inkscape-font-specification:Ubuntu;text-align:start;letter-spacing:0px;word-spacing:0px;text-anchor:start;fill:#008ff8;fill-opacity:1;stroke:none;stroke-width:0.5189746"
           id="path10550" />
        <path
           d="m 68.020722,227.47288 h -6.554304 l 5.535729,-23.29436 h 6.59859 z m 3.18858,-26.12864 q -1.372861,0 -2.480007,-0.79714 -1.107146,-0.84144 -1.107146,-2.52431 0,-0.92999 0.354287,-1.72713 0.398572,-0.84144 1.018574,-1.41716 0.620001,-0.61999 1.417146,-0.97429 0.841431,-0.35428 1.771434,-0.35428 1.372861,0 2.480007,0.84144 1.107145,0.79714 1.107145,2.48001 0,0.92999 -0.398572,1.77143 -0.354287,0.79714 -0.974288,1.41713 -0.620002,0.57572 -1.461433,0.93 -0.797145,0.3543 -1.727147,0.3543 z"
           style="font-style:normal;font-variant:normal;font-weight:normal;font-stretch:normal;font-size:medium;line-height:1.25;font-family:Ubuntu;-inkscape-font-specification:Ubuntu;text-align:start;letter-spacing:0px;word-spacing:0px;text-anchor:start;fill:#008ff8;fill-opacity:1;stroke:none;stroke-width:0.5189746"
           id="path10552" />
        <path
           d="m 80.341177,198.3771 6.864304,-1.06288 -1.682862,6.8643 h 7.351449 l -1.328575,5.40289 H 84.23833 l -1.948577,8.14858 q -0.265715,1.01859 -0.354286,1.90429 -0.04429,0.88573 0.221429,1.55001 0.310001,0.61999 1.018574,0.9743 0.708573,0.35427 1.948577,0.35427 1.06286,0 2.037148,-0.17715 1.018574,-0.22142 2.037148,-0.5757 l 0.487145,5.04859 q -1.328576,0.48713 -2.87858,0.84141 -1.550004,0.3543 -3.675724,0.3543 -3.055722,0 -4.738584,-0.88573 -1.682862,-0.93 -2.391435,-2.47998 -0.708573,-1.59431 -0.620002,-3.63146 0.08857,-2.03714 0.620002,-4.29573 z"
           style="font-style:normal;font-variant:normal;font-weight:normal;font-stretch:normal;font-size:medium;line-height:1.25;font-family:Ubuntu;-inkscape-font-specification:Ubuntu;text-align:start;letter-spacing:0px;word-spacing:0px;text-anchor:start;fill:#008ff8;fill-opacity:1;stroke:none;stroke-width:0.5189746"
           id="path10554" />
        <path
           d="m 93.068512,218.17286 q 0,-3.01144 0.974289,-5.6686 0.974288,-2.65714 2.790007,-4.65001 1.815719,-1.99286 4.384302,-3.1443 2.61286,-1.15141 5.80144,-1.15141 1.99286,0 3.54287,0.39857 1.59429,0.35427 2.87858,0.97429 l -2.25858,5.13714 q -0.88572,-0.35427 -1.86001,-0.61999 -0.93,-0.31 -2.30286,-0.31 -3.32144,0 -5.22573,2.25856 -1.904289,2.2143 -1.904289,6.06717 0,2.25856 0.974289,3.67572 0.97429,1.37286 3.58715,1.37286 1.28429,0 2.48001,-0.26571 1.19572,-0.26572 2.12572,-0.66429 l 0.48714,5.27001 q -1.24,0.48715 -2.74572,0.84143 -1.46143,0.39857 -3.58715,0.39857 -2.74572,0 -4.650014,-0.79714 -1.904291,-0.79714 -3.144294,-2.12571 -1.240004,-1.37286 -1.815719,-3.18859 -0.531431,-1.81572 -0.531431,-3.80857 z"
           style="font-style:normal;font-variant:normal;font-weight:normal;font-stretch:normal;font-size:medium;line-height:1.25;font-family:Ubuntu;-inkscape-font-specification:Ubuntu;text-align:start;letter-spacing:0px;word-spacing:0px;text-anchor:start;fill:#008ff8;fill-opacity:1;stroke:none;stroke-width:0.5189746"
           id="path10556" />
        <path
           d="m 122.43348,228.09287 q -2.34715,0 -4.07429,-0.70858 -1.72715,-0.70855 -2.87858,-1.99285 -1.10715,-1.2843 -1.68286,-3.01144 -0.57572,-1.77143 -0.57572,-3.89714 0,-2.65716 0.84143,-5.31432 0.88572,-2.65713 2.56858,-4.78287 1.68286,-2.12571 4.11858,-3.45427 2.43572,-1.37286 5.58001,-1.37286 2.30287,0 4.03002,0.70855 1.77143,0.70858 2.87858,1.99287 1.15143,1.28428 1.72714,3.05574 0.57572,1.72713 0.57572,3.85284 0,2.65716 -0.84143,5.31432 -0.84143,2.65714 -2.48001,4.78287 -1.63857,2.12571 -4.11858,3.49857 -2.43572,1.32857 -5.66859,1.32857 z m 3.27715,-18.95432 q -1.46143,0 -2.56857,0.84143 -1.10715,0.84143 -1.86001,2.12571 -0.75286,1.2843 -1.15143,2.83428 -0.35429,1.50572 -0.35429,2.87858 0,2.2586 0.70858,3.4986 0.70857,1.19571 2.56857,1.19571 1.46144,0 2.56858,-0.84143 1.10715,-0.84144 1.86001,-2.12571 0.75286,-1.2843 1.10714,-2.79002 0.39858,-1.55001 0.39858,-2.92285 0,-2.25859 -0.70858,-3.4543 -0.70857,-1.24 -2.56858,-1.24 z"
           style="font-style:normal;font-variant:normal;font-weight:normal;font-stretch:normal;font-size:medium;line-height:1.25;font-family:Ubuntu;-inkscape-font-specification:Ubuntu;text-align:start;letter-spacing:0px;word-spacing:0px;text-anchor:start;fill:#008ff8;fill-opacity:1;stroke:none;stroke-width:0.5189746"
           id="path10558" />
        <path
           d="m 143.87751,227.47288 h -6.55431 l 5.53573,-23.29436 h 6.59859 z m 3.18858,-26.12864 q -1.37286,0 -2.48001,-0.79714 -1.10715,-0.84144 -1.10715,-2.52431 0,-0.92999 0.35429,-1.72713 0.39857,-0.84144 1.01858,-1.41716 0.62,-0.61999 1.41714,-0.97429 0.84143,-0.35428 1.77144,-0.35428 1.37286,0 2.48,0.84144 1.10715,0.79714 1.10715,2.48001 0,0.92999 -0.39858,1.77143 -0.35428,0.79714 -0.97428,1.41713 -0.62,0.57572 -1.46143,0.93 -0.79715,0.3543 -1.72715,0.3543 z"
           style="font-style:normal;font-variant:normal;font-weight:normal;font-stretch:normal;font-size:medium;line-height:1.25;font-family:Ubuntu;-inkscape-font-specification:Ubuntu;text-align:start;letter-spacing:0px;word-spacing:0px;text-anchor:start;fill:#008ff8;fill-opacity:1;stroke:none;stroke-width:0.5189746"
           id="path10560" />
        <path
           d="m 155.22368,205.24138 q 0.75286,-0.22142 1.63858,-0.48713 0.93,-0.31001 2.03714,-0.53143 1.15144,-0.26571 2.5243,-0.39857 1.41714,-0.17715 3.18858,-0.17715 5.22572,0 7.1743,3.01143 1.94858,3.01144 0.66429,8.23718 l -3.01144,12.57717 h -6.59859 l 2.92287,-12.31146 q 0.26571,-1.15144 0.39857,-2.2143 0.17714,-1.10715 0,-1.90429 -0.17714,-0.84143 -0.84143,-1.32856 -0.62,-0.53143 -1.94858,-0.53143 -1.28429,0 -2.61286,0.26571 l -4.29573,18.02433 h -6.59858 z"
           style="font-style:normal;font-variant:normal;font-weight:normal;font-stretch:normal;font-size:medium;line-height:1.25;font-family:Ubuntu;-inkscape-font-specification:Ubuntu;text-align:start;letter-spacing:0px;word-spacing:0px;text-anchor:start;fill:#008ff8;fill-opacity:1;stroke:none;stroke-width:0.5189746"
           id="path10562" />
        <path
           d="m 203.7029,227.47288 q -0.0886,-1.72716 -0.22143,-3.36574 -0.0886,-1.68284 -0.22142,-3.32142 h -11.51432 q -0.88572,1.63858 -1.86001,3.32142 -0.97428,1.63858 -1.86,3.36574 h -7.21859 q 2.87858,-4.96002 5.35858,-9.16717 2.5243,-4.20714 4.82716,-7.92716 2.34715,-3.72002 4.56144,-7.04146 2.21429,-3.36571 4.51716,-6.5543 h 6.15573 q 0.70857,3.18859 1.32857,7.08573 0.66429,3.85287 1.19572,7.92716 0.57571,4.03002 1.01857,8.10431 0.48715,4.03003 0.88572,7.57289 z m -2.03714,-23.95864 q -1.86001,2.96714 -3.67573,5.89002 -1.77143,2.92287 -3.45429,5.97858 h 8.28145 q -0.22143,-2.70143 -0.48715,-5.75716 -0.22143,-3.05571 -0.66428,-6.11144 z"
           style="font-style:normal;font-variant:normal;font-weight:normal;font-stretch:normal;font-size:medium;line-height:1.25;font-family:Ubuntu;-inkscape-font-specification:Ubuntu;text-align:start;letter-spacing:0px;word-spacing:0px;text-anchor:start;fill:#00d6b4;fill-opacity:1;stroke:none;stroke-width:0.5189746"
           id="path10564" />
        <path
           d="m 221.45461,227.47288 h -6.55431 l 5.53573,-23.29436 h 6.59859 z m 3.18858,-26.12864 q -1.37286,0 -2.48001,-0.79714 -1.10714,-0.84144 -1.10714,-2.52431 0,-0.92999 0.35428,-1.72713 0.39858,-0.84144 1.01857,-1.41716 0.62001,-0.61999 1.41715,-0.97429 0.84143,-0.35428 1.77144,-0.35428 1.37286,0 2.48,0.84144 1.10715,0.79714 1.10715,2.48001 0,0.92999 -0.39857,1.77143 -0.35429,0.79714 -0.97429,1.41713 -0.62001,0.57572 -1.46144,0.93 -0.79714,0.3543 -1.72714,0.3543 z"
           style="font-style:normal;font-variant:normal;font-weight:normal;font-stretch:normal;font-size:medium;line-height:1.25;font-family:Ubuntu;-inkscape-font-specification:Ubuntu;text-align:start;letter-spacing:0px;word-spacing:0px;text-anchor:start;fill:#00d6b4;fill-opacity:1;stroke:none;stroke-width:0.5189746"
           id="path10566" />
        <path
           d="m 245.2451,209.84712 q -0.88572,-0.22144 -1.77143,-0.39857 -0.84143,-0.22144 -2.5243,-0.22144 -0.62,0 -1.37286,0.13285 -0.75286,0.0886 -1.24,0.22145 l -4.29573,17.89147 h -6.59859 l 5.3143,-22.05435 q 1.90429,-0.61999 4.25144,-1.15144 2.39144,-0.5757 5.35859,-0.5757 1.10715,0 2.43572,0.22142 1.37286,0.17715 2.39144,0.62002 z"
           style="font-style:normal;font-variant:normal;font-weight:normal;font-stretch:normal;font-size:medium;line-height:1.25;font-family:Ubuntu;-inkscape-font-specification:Ubuntu;text-align:start;letter-spacing:0px;word-spacing:0px;text-anchor:start;fill:#00d6b4;fill-opacity:1;stroke:none;stroke-width:0.5189746"
           id="path10568" />
      </g>
    </g>
  </g>
</svg>
